<svg width="16" height="16" viewBox="0 0 16 16" fill="none" xmlns="http://www.w3.org/2000/svg">
<path fill-rule="evenodd" clip-rule="evenodd" d="M14.7368 0H5.05263C4.61688 0.00134396 4.21266 0.205803 3.98316 0.540952L0.614739 3.58857C0.232736 3.79531 -0.000803474 4.1687 2.07723e-06 4.57143V14.8571C2.07723e-06 15.4883 0.565537 16 1.26316 16H14.7368C15.4345 16 16 15.4883 16 14.8571V1.14286C16 0.511675 15.4345 0 14.7368 0ZM3.78954 2.33142V3.42856H2.5769L3.78954 2.33142ZM14.7367 14.8571H1.26306V4.60953H1.28832L1.31359 4.58667H5.05254V1.20381L5.0778 1.18096V1.1581H14.7199L14.7367 14.8571Z" fill="#2D9CDB"/>
<path fill-rule="evenodd" clip-rule="evenodd" d="M12.2106 8.76192H3.78954C3.44073 8.76192 3.15796 9.01775 3.15796 9.33335C3.15796 9.64894 3.44073 9.90477 3.78954 9.90477H12.2106C12.5594 9.90477 12.8422 9.64894 12.8422 9.33335C12.8422 9.01775 12.5594 8.76192 12.2106 8.76192Z" fill="#2D9CDB"/>
<path fill-rule="evenodd" clip-rule="evenodd" d="M10.9474 11.4286H3.78954C3.44073 11.4286 3.15796 11.6844 3.15796 12C3.15796 12.3156 3.44073 12.5714 3.78954 12.5714H10.9474C11.2962 12.5714 11.579 12.3156 11.579 12C11.579 11.6844 11.2962 11.4286 10.9474 11.4286Z" fill="#2D9CDB"/>
<path fill-rule="evenodd" clip-rule="evenodd" d="M9.26316 7.23809H11.7895C12.4871 7.23809 13.0526 6.72641 13.0526 6.09523V3.80951C13.0526 3.17833 12.4871 2.66666 11.7895 2.66666H9.26316C8.56553 2.66666 8 3.17833 8 3.80951V6.09523C8 6.72641 8.56553 7.23809 9.26316 7.23809ZM9.26306 3.80952H11.7894V6.09523H9.26306V3.80952Z" fill="#2D9CDB"/>
</svg>
