<svg width="16" height="16" viewBox="0 0 16 16" fill="none" xmlns="http://www.w3.org/2000/svg">
<path fill-rule="evenodd" clip-rule="evenodd" d="M0.727273 2.08696H15.2727C15.6744 2.08696 16 1.61978 16 1.04348C16 0.467181 15.6744 0 15.2727 0H0.727273C0.325611 0 0 0.467181 0 1.04348C0 1.61978 0.325611 2.08696 0.727273 2.08696Z" fill="#2D9CDB"/>
<path fill-rule="evenodd" clip-rule="evenodd" d="M15.2727 6.95653H0.727273C0.325611 6.95653 0 7.42371 0 8.00001C0 8.5763 0.325611 9.04348 0.727273 9.04348H15.2727C15.6744 9.04348 16 8.5763 16 8.00001C16 7.42371 15.6744 6.95653 15.2727 6.95653Z" fill="#2D9CDB"/>
<path fill-rule="evenodd" clip-rule="evenodd" d="M15.2727 13.913H0.727273C0.325611 13.913 0 14.3802 0 14.9565C0 15.5328 0.325611 16 0.727273 16H15.2727C15.6744 16 16 15.5328 16 14.9565C16 14.3802 15.6744 13.913 15.2727 13.913Z" fill="#2D9CDB"/>
</svg>
